# xmcd
#
# Track frame offsets: 
#        150
#        17654
#        33032
#        50075
#        70378
#        88632
#        104090
#        123555
#        144499
#        163205
#        183907
#        202682
#
# Disc length: 2866 seconds
#
# Revision: 0
# Processed by: cddbd v1.5.2PL0 Copyright (c) Steve Scherf et al.
# Submitted via: ExactAudioCopy v0.99pb5
#
DISCID=a50b300c
DTITLE=Gentlemen's Blues Club - Longhorn Honeymoon
DYEAR=2007
DGENRE=Blues
TTITLE0=2 Kinds of Women
TTITLE1=The Sky's on Fire
TTITLE2=Take Time out to Hear Me Some Blues
TTITLE3=Run
TTITLE4=Walkin' Dead
TTITLE5=State of Grace
TTITLE6=Longhorn Honeymoon
TTITLE7=Use Me
TTITLE8=The Blues Begin to Gray
TTITLE9=Are You Really Satisfied?
TTITLE10=Green Eyed Lady
TTITLE11=This Long
EXTD=
EXTT0=
EXTT1=
EXTT2=
EXTT3=
EXTT4=
EXTT5=
EXTT6=
EXTT7=
EXTT8=
EXTT9=
EXTT10=
EXTT11=
PLAYORDER=
